<svg width="1596" height="1064" fill="none" xmlns="http://www.w3.org/2000/svg">
  <g filter="url(#filter0_d)">
    <mask id="a" maskUnits="userSpaceOnUse" x="168" y="58" width="1260" height="926">
      <path transform="rotate(90 1428 58.945)" fill="#C4C4C4" d="M1428 58.945h924.687v1260H1428z"/>
    </mask>
    <g mask="url(#a)">
      <circle cx="798" cy="702.457" r="630" transform="rotate(90 798 702.457)" fill="#13B5EA"/>
    </g>
  </g>
  <g filter="url(#filter1_d)">
    <path d="M235.5 273.632c0-5.523 4.477-10 10-10h1105c5.52 0 10 4.477 10 10v710h-1125v-710z" fill="#fff"/>
    <path d="M235.5 238.544c0-5.523 4.477-10 10-10h1105c5.52 0 10 4.477 10 10v116h-1125v-116z" fill="#fff" stroke="#BFC8D1" stroke-width="3"/>
    <path d="M235.5 238.544c0-5.523 4.477-10 10-10h1105c5.52 0 10 4.477 10 10v745.088h-1125V238.544z" stroke="#BFC8D1" stroke-width="6"/>
    <path d="M215.151 984.081H1379.99" stroke="#BFC8D1" stroke-width="10" stroke-linecap="square"/>
    <path d="M337.214 449.387v-11.556h6.588c.972 0 1.908.072 2.808.216.9.144 1.692.432 2.376.864.684.396 1.224.972 1.62 1.728.432.756.648 1.746.648 2.97 0 1.224-.216 2.214-.648 2.97a4.565 4.565 0 01-1.62 1.782c-.684.396-1.476.666-2.376.81-.9.144-1.836.216-2.808.216h-6.588zm-8.478-18.144v38.556h8.478v-13.824h8.91c2.412 0 4.464-.342 6.156-1.026 1.692-.72 3.06-1.656 4.104-2.808a10.215 10.215 0 002.322-3.942 14.43 14.43 0 00.756-4.59c0-1.584-.252-3.114-.756-4.59a10.215 10.215 0 00-2.322-3.942c-1.044-1.152-2.412-2.07-4.104-2.754-1.692-.72-3.744-1.08-6.156-1.08h-17.388zm61.372 38.556v-27.918h-7.668v14.634c0 2.844-.468 4.896-1.404 6.156-.936 1.224-2.448 1.836-4.536 1.836-1.836 0-3.114-.558-3.834-1.674-.72-1.152-1.08-2.88-1.08-5.184v-15.768h-7.668v17.172c0 1.728.144 3.312.432 4.752.324 1.404.864 2.61 1.62 3.618.756.972 1.782 1.728 3.078 2.268 1.332.54 3.024.81 5.076.81 1.62 0 3.204-.36 4.752-1.08 1.548-.72 2.808-1.89 3.78-3.51h.162v3.888h7.29zm5.795-27.918v27.918h7.668v-12.582c0-1.26.126-2.43.378-3.51.252-1.08.666-2.016 1.242-2.808a6.295 6.295 0 012.376-1.944c.972-.468 2.16-.702 3.564-.702.468 0 .954.036 1.458.108.504.036.936.09 1.296.162v-7.128c-.612-.18-1.17-.27-1.674-.27-.972 0-1.908.144-2.808.432a9.77 9.77 0 00-2.538 1.242 8.73 8.73 0 00-2.106 1.89 8.984 8.984 0 00-1.458 2.376h-.108v-5.184h-7.29zm39.022 9.828h7.506c-.108-1.8-.54-3.348-1.296-4.644a10.044 10.044 0 00-2.97-3.294c-1.188-.9-2.556-1.566-4.104-1.998a17.214 17.214 0 00-4.752-.648c-2.268 0-4.284.378-6.048 1.134-1.764.756-3.258 1.818-4.482 3.186-1.224 1.332-2.16 2.934-2.808 4.806-.612 1.836-.918 3.834-.918 5.994 0 2.088.342 4.014 1.026 5.778.684 1.728 1.638 3.222 2.862 4.482 1.224 1.26 2.7 2.25 4.428 2.97 1.764.684 3.69 1.026 5.778 1.026 3.708 0 6.75-.972 9.126-2.916 2.376-1.944 3.816-4.77 4.32-8.478h-7.398c-.252 1.728-.882 3.114-1.89 4.158-.972 1.008-2.376 1.512-4.212 1.512-1.188 0-2.196-.27-3.024-.81a6.395 6.395 0 01-1.998-2.052 10.393 10.393 0 01-1.026-2.862 15.166 15.166 0 01-.324-3.078c0-1.044.108-2.088.324-3.132.216-1.08.576-2.052 1.08-2.916.54-.9 1.224-1.62 2.052-2.16.828-.576 1.854-.864 3.078-.864 3.276 0 5.166 1.602 5.67 4.806zm11.975-20.466v38.556h7.668v-14.634c0-2.844.468-4.878 1.404-6.102.936-1.26 2.448-1.89 4.536-1.89 1.836 0 3.114.576 3.834 1.728.72 1.116 1.08 2.826 1.08 5.13v15.768h7.668v-17.172c0-1.728-.162-3.294-.486-4.698-.288-1.44-.81-2.646-1.566-3.618-.756-1.008-1.8-1.782-3.132-2.322-1.296-.576-2.97-.864-5.022-.864-1.44 0-2.916.378-4.428 1.134-1.512.72-2.754 1.89-3.726 3.51h-.162v-14.526H446.9zm31.661 19.224c.108-1.8.558-3.294 1.35-4.482a9.193 9.193 0 013.024-2.862c1.224-.72 2.592-1.224 4.104-1.512a22.613 22.613 0 014.644-.486c1.404 0 2.826.108 4.266.324 1.44.18 2.754.558 3.942 1.134a7.67 7.67 0 012.916 2.43c.756 1.008 1.134 2.358 1.134 4.05v14.526c0 1.26.072 2.466.216 3.618.144 1.152.396 2.016.756 2.592h-7.776c-.144-.432-.27-.864-.378-1.296a18.624 18.624 0 01-.162-1.404 9.992 9.992 0 01-4.32 2.646 17.34 17.34 0 01-5.076.756c-1.332 0-2.574-.162-3.726-.486-1.152-.324-2.16-.828-3.024-1.512a7.297 7.297 0 01-2.052-2.592c-.468-1.044-.702-2.286-.702-3.726 0-1.584.27-2.88.81-3.888.576-1.044 1.296-1.872 2.16-2.484a9.592 9.592 0 013.024-1.35 29.681 29.681 0 013.456-.756 58.61 58.61 0 013.402-.432 20.459 20.459 0 002.97-.486c.864-.216 1.548-.522 2.052-.918.504-.432.738-1.044.702-1.836 0-.828-.144-1.476-.432-1.944a2.537 2.537 0 00-1.08-1.134c-.432-.288-.954-.468-1.566-.54a10.273 10.273 0 00-1.89-.162c-1.512 0-2.7.324-3.564.972-.864.648-1.368 1.728-1.512 3.24h-7.668zm17.712 5.67c-.324.288-.738.522-1.242.702-.468.144-.99.27-1.566.378-.54.108-1.116.198-1.728.27-.612.072-1.224.162-1.836.27-.576.108-1.152.252-1.728.432-.54.18-1.026.432-1.458.756-.396.288-.72.666-.972 1.134-.252.468-.378 1.062-.378 1.782 0 .684.126 1.26.378 1.728.252.468.594.846 1.026 1.134.432.252.936.432 1.512.54a9.65 9.65 0 001.782.162c1.512 0 2.682-.252 3.51-.756.828-.504 1.44-1.098 1.836-1.782.396-.72.63-1.44.702-2.16.108-.72.162-1.296.162-1.728v-2.862zm19.535 4.59h-7.29c.072 1.872.486 3.438 1.242 4.698a9.74 9.74 0 002.97 2.97c1.224.756 2.61 1.296 4.158 1.62 1.548.324 3.132.486 4.752.486 1.584 0 3.132-.162 4.644-.486 1.548-.288 2.916-.81 4.104-1.566a8.693 8.693 0 002.862-2.97c.756-1.26 1.134-2.808 1.134-4.644 0-1.296-.252-2.376-.756-3.24a6.564 6.564 0 00-1.998-2.214c-.828-.612-1.782-1.098-2.862-1.458a30.62 30.62 0 00-3.24-.918c-1.08-.252-2.142-.486-3.186-.702a31.913 31.913 0 01-2.808-.702c-.792-.288-1.44-.648-1.944-1.08-.504-.432-.756-.99-.756-1.674 0-.576.144-1.026.432-1.35.288-.36.63-.63 1.026-.81.432-.18.9-.288 1.404-.324a9.97 9.97 0 011.404-.108c1.368 0 2.556.27 3.564.81 1.008.504 1.566 1.494 1.674 2.97h7.29c-.144-1.728-.594-3.15-1.35-4.266a8.39 8.39 0 00-2.754-2.754c-1.116-.684-2.394-1.17-3.834-1.458a21.718 21.718 0 00-4.374-.432c-1.512 0-2.988.144-4.428.432-1.44.252-2.736.72-3.888 1.404a7.756 7.756 0 00-2.808 2.7c-.684 1.152-1.026 2.628-1.026 4.428 0 1.224.252 2.268.756 3.132a6.953 6.953 0 001.998 2.106c.828.54 1.764.99 2.808 1.35 1.08.324 2.178.612 3.294.864 2.736.576 4.86 1.152 6.372 1.728 1.548.576 2.322 1.44 2.322 2.592 0 .684-.162 1.26-.486 1.728a4.023 4.023 0 01-1.242 1.08 6.59 6.59 0 01-1.62.594 9.079 9.079 0 01-1.674.162c-.756 0-1.494-.09-2.214-.27a6.063 6.063 0 01-1.836-.81 5.222 5.222 0 01-1.35-1.458c-.324-.612-.486-1.332-.486-2.16zm41.83-7.884h-12.474c.036-.54.144-1.152.324-1.836a6.326 6.326 0 011.026-1.944c.504-.612 1.152-1.116 1.944-1.512.828-.432 1.854-.648 3.078-.648 1.872 0 3.258.504 4.158 1.512.936 1.008 1.584 2.484 1.944 4.428zm-12.474 4.86h20.142c.144-2.16-.036-4.23-.54-6.21-.504-1.98-1.332-3.744-2.484-5.292-1.116-1.548-2.556-2.772-4.32-3.672-1.764-.936-3.834-1.404-6.21-1.404-2.124 0-4.068.378-5.832 1.134a13.602 13.602 0 00-4.482 3.132c-1.26 1.296-2.232 2.844-2.916 4.644-.684 1.8-1.026 3.744-1.026 5.832 0 2.16.324 4.14.972 5.94.684 1.8 1.638 3.348 2.862 4.644 1.224 1.296 2.718 2.304 4.482 3.024 1.764.684 3.744 1.026 5.94 1.026 3.168 0 5.868-.72 8.1-2.16 2.232-1.44 3.888-3.834 4.968-7.182h-6.75c-.252.864-.936 1.692-2.052 2.484-1.116.756-2.448 1.134-3.996 1.134-2.16 0-3.816-.558-4.968-1.674-1.152-1.116-1.782-2.916-1.89-5.4zm47.284-7.02c0-1.692.18-3.33.54-4.914.396-1.584 1.008-2.988 1.836-4.212a8.857 8.857 0 013.24-2.97c1.332-.756 2.952-1.134 4.86-1.134 1.908 0 3.528.378 4.86 1.134a8.857 8.857 0 013.24 2.97c.828 1.224 1.422 2.628 1.782 4.212.396 1.584.594 3.222.594 4.914 0 1.62-.198 3.204-.594 4.752a12.366 12.366 0 01-1.782 4.104 9.52 9.52 0 01-3.24 2.97c-1.332.72-2.952 1.08-4.86 1.08-1.908 0-3.528-.36-4.86-1.08a9.52 9.52 0 01-3.24-2.97 13.255 13.255 0 01-1.836-4.104 20.91 20.91 0 01-.54-4.752zm-8.478 0c0 2.808.432 5.436 1.296 7.884.864 2.412 2.106 4.518 3.726 6.318 1.62 1.8 3.6 3.222 5.94 4.266 2.376 1.008 5.04 1.512 7.992 1.512 2.988 0 5.652-.504 7.992-1.512 2.34-1.044 4.32-2.466 5.94-4.266 1.62-1.8 2.862-3.906 3.726-6.318.864-2.448 1.296-5.076 1.296-7.884 0-2.88-.432-5.544-1.296-7.992-.864-2.484-2.106-4.644-3.726-6.48-1.62-1.836-3.6-3.276-5.94-4.32-2.34-1.044-5.004-1.566-7.992-1.566-2.952 0-5.616.522-7.992 1.566-2.34 1.044-4.32 2.484-5.94 4.32-1.62 1.836-2.862 3.996-3.726 6.48-.864 2.448-1.296 5.112-1.296 7.992zm42.868-8.802v27.918h7.668v-12.582c0-1.26.126-2.43.378-3.51.252-1.08.666-2.016 1.242-2.808a6.295 6.295 0 012.376-1.944c.972-.468 2.16-.702 3.564-.702.468 0 .954.036 1.458.108.504.036.936.09 1.296.162v-7.128c-.612-.18-1.17-.27-1.674-.27-.972 0-1.908.144-2.808.432a9.77 9.77 0 00-2.538 1.242 8.73 8.73 0 00-2.106 1.89 8.984 8.984 0 00-1.458 2.376h-.108v-5.184h-7.29zm39.832 13.878c0 1.152-.108 2.268-.324 3.348-.216 1.08-.576 2.052-1.08 2.916a5.748 5.748 0 01-2.052 1.998c-.828.504-1.872.756-3.132.756-1.188 0-2.214-.252-3.078-.756a7.613 7.613 0 01-2.106-2.052 9.552 9.552 0 01-1.188-2.916 14.216 14.216 0 01-.378-3.24c0-1.152.108-2.25.324-3.294.252-1.08.63-2.034 1.134-2.862a6.219 6.219 0 012.106-1.998c.864-.504 1.926-.756 3.186-.756s2.304.252 3.132.756a5.894 5.894 0 011.998 1.998c.54.792.918 1.728 1.134 2.808.216 1.044.324 2.142.324 3.294zm.108 10.476v3.564h7.29v-38.556H666.4v14.04h-.108c-.864-1.368-2.052-2.394-3.564-3.078a10.578 10.578 0 00-4.698-1.08c-2.052 0-3.852.414-5.4 1.242a11.564 11.564 0 00-3.888 3.186c-1.008 1.332-1.782 2.88-2.322 4.644a19.187 19.187 0 00-.756 5.4c0 1.944.252 3.816.756 5.616.54 1.8 1.314 3.402 2.322 4.806 1.044 1.368 2.358 2.466 3.942 3.294 1.584.792 3.42 1.188 5.508 1.188 1.836 0 3.474-.324 4.914-.972 1.476-.684 2.664-1.782 3.564-3.294h.108zm31.853-13.392h-12.474c.036-.54.144-1.152.324-1.836a6.326 6.326 0 011.026-1.944c.504-.612 1.152-1.116 1.944-1.512.828-.432 1.854-.648 3.078-.648 1.872 0 3.258.504 4.158 1.512.936 1.008 1.584 2.484 1.944 4.428zm-12.474 4.86h20.142c.144-2.16-.036-4.23-.54-6.21-.504-1.98-1.332-3.744-2.484-5.292-1.116-1.548-2.556-2.772-4.32-3.672-1.764-.936-3.834-1.404-6.21-1.404-2.124 0-4.068.378-5.832 1.134a13.602 13.602 0 00-4.482 3.132c-1.26 1.296-2.232 2.844-2.916 4.644-.684 1.8-1.026 3.744-1.026 5.832 0 2.16.324 4.14.972 5.94.684 1.8 1.638 3.348 2.862 4.644 1.224 1.296 2.718 2.304 4.482 3.024 1.764.684 3.744 1.026 5.94 1.026 3.168 0 5.868-.72 8.1-2.16 2.232-1.44 3.888-3.834 4.968-7.182h-6.75c-.252.864-.936 1.692-2.052 2.484-1.116.756-2.448 1.134-3.996 1.134-2.16 0-3.816-.558-4.968-1.674-1.152-1.116-1.782-2.916-1.89-5.4zm24.664-15.822v27.918h7.668v-12.582c0-1.26.126-2.43.378-3.51.252-1.08.666-2.016 1.242-2.808a6.295 6.295 0 012.376-1.944c.972-.468 2.16-.702 3.564-.702.468 0 .954.036 1.458.108.504.036.936.09 1.296.162v-7.128c-.612-.18-1.17-.27-1.674-.27-.972 0-1.908.144-2.808.432a9.77 9.77 0 00-2.538 1.242 8.73 8.73 0 00-2.106 1.89 8.984 8.984 0 00-1.458 2.376h-.108v-5.184h-7.29z" fill="#284664"/>
    <path d="M327.467 520.233v22.491h2.992v-10.3h10.332v-2.52h-10.332v-7.151h11.781v-2.52h-14.773zm19.582 14.364c0-.987.126-1.858.378-2.614.273-.777.641-1.428 1.103-1.953a4.667 4.667 0 011.606-1.197 4.942 4.942 0 011.985-.41 4.72 4.72 0 011.953.41 4.59 4.59 0 011.638 1.197c.462.525.819 1.176 1.071 1.953.273.756.409 1.627.409 2.614 0 .987-.136 1.869-.409 2.646-.252.756-.609 1.397-1.071 1.922a4.769 4.769 0 01-1.638 1.165 4.72 4.72 0 01-1.953.41 4.942 4.942 0 01-1.985-.41 4.852 4.852 0 01-1.606-1.165c-.462-.525-.83-1.166-1.103-1.922-.252-.777-.378-1.659-.378-2.646zm-2.835 0c0 1.197.168 2.31.504 3.339a7.785 7.785 0 001.512 2.709 7.221 7.221 0 002.489 1.796c.987.42 2.121.63 3.402.63 1.302 0 2.436-.21 3.402-.63a7.217 7.217 0 002.488-1.796 7.785 7.785 0 001.512-2.709c.336-1.029.504-2.142.504-3.339s-.168-2.31-.504-3.339c-.336-1.05-.84-1.953-1.512-2.709a7.03 7.03 0 00-2.488-1.827c-.966-.441-2.1-.661-3.402-.661-1.281 0-2.415.22-3.402.661a7.034 7.034 0 00-2.489 1.827c-.672.756-1.176 1.659-1.512 2.709-.336 1.029-.504 2.142-.504 3.339zm23.331-.441l-6.111 8.568h3.245l4.536-6.741 4.536 6.741h3.433l-6.3-8.788 5.607-7.497h-3.213l-4.063 5.701-3.906-5.701h-3.434l5.67 7.717zm25.957 7.182v-14.899h-2.52v2.331h-.032c-.483-.903-1.155-1.575-2.016-2.016a5.9 5.9 0 00-2.835-.693c-1.407 0-2.593.273-3.559.819-.966.525-1.743 1.207-2.331 2.047a7.94 7.94 0 00-1.26 2.772 12.182 12.182 0 00-.378 2.961c0 1.113.147 2.174.441 3.182a7.997 7.997 0 001.386 2.614 6.746 6.746 0 002.268 1.764c.903.441 1.963.662 3.181.662 1.05 0 2.037-.231 2.961-.693.945-.483 1.649-1.229 2.111-2.237h.063v1.071c0 .903-.095 1.733-.284 2.489-.168.756-.451 1.396-.85 1.921a3.998 3.998 0 01-1.512 1.26c-.609.315-1.355.473-2.237.473-.441 0-.903-.053-1.386-.158a4.877 4.877 0 01-1.354-.441 3.593 3.593 0 01-1.04-.819c-.273-.336-.42-.745-.441-1.228h-2.677c.042.882.273 1.627.693 2.236a5.05 5.05 0 001.575 1.481 7.313 7.313 0 002.142.819c.798.168 1.575.252 2.331.252 2.604 0 4.515-.662 5.733-1.985s1.827-3.318 1.827-5.985zm-7.497-.787c-.882 0-1.617-.179-2.205-.536a4.45 4.45 0 01-1.418-1.449 6.459 6.459 0 01-.756-2.016c-.147-.735-.22-1.47-.22-2.205 0-.777.084-1.522.252-2.236a5.974 5.974 0 01.85-1.89 4.284 4.284 0 011.512-1.292c.609-.336 1.344-.504 2.205-.504.84 0 1.554.168 2.142.504a3.987 3.987 0 011.418 1.355 5.51 5.51 0 01.819 1.858 8.93 8.93 0 01.252 2.111 9.32 9.32 0 01-.284 2.268 6.536 6.536 0 01-.819 2.047 4.545 4.545 0 01-1.512 1.449c-.609.357-1.354.536-2.236.536zm11.676-20.318v22.491h2.677v-22.491h-2.677zm8.761 14.364c0-.987.126-1.858.378-2.614.273-.777.64-1.428 1.102-1.953a4.67 4.67 0 011.607-1.197 4.937 4.937 0 011.984-.41 4.72 4.72 0 011.953.41 4.59 4.59 0 011.638 1.197c.462.525.819 1.176 1.071 1.953.273.756.41 1.627.41 2.614 0 .987-.137 1.869-.41 2.646-.252.756-.609 1.397-1.071 1.922a4.769 4.769 0 01-1.638 1.165 4.72 4.72 0 01-1.953.41 4.937 4.937 0 01-1.984-.41 4.856 4.856 0 01-1.607-1.165c-.462-.525-.829-1.166-1.102-1.922-.252-.777-.378-1.659-.378-2.646zm-2.835 0c0 1.197.168 2.31.504 3.339a7.785 7.785 0 001.512 2.709 7.217 7.217 0 002.488 1.796c.987.42 2.121.63 3.402.63 1.302 0 2.436-.21 3.402-.63a7.221 7.221 0 002.489-1.796 7.785 7.785 0 001.512-2.709c.336-1.029.504-2.142.504-3.339s-.168-2.31-.504-3.339c-.336-1.05-.84-1.953-1.512-2.709a7.034 7.034 0 00-2.489-1.827c-.966-.441-2.1-.661-3.402-.661-1.281 0-2.415.22-3.402.661a7.03 7.03 0 00-2.488 1.827c-.672.756-1.176 1.659-1.512 2.709-.336 1.029-.504 2.142-.504 3.339zm26.291 8.127l5.954-16.285h-2.804l-4.441 13.576h-.063l-4.568-13.576h-2.992l6.048 16.285h2.866zm19.702-9.702h-9.356a5.42 5.42 0 01.41-1.764c.231-.567.546-1.06.945-1.48.399-.42.871-.746 1.417-.977a4.603 4.603 0 011.89-.378c.672 0 1.281.126 1.827.378.567.231 1.05.557 1.449.977.42.399.746.882.977 1.449.252.567.399 1.165.441 1.795zm2.583 4.536h-2.646c-.231 1.071-.714 1.869-1.449 2.394-.714.525-1.638.788-2.772.788-.882 0-1.649-.147-2.3-.441a4.599 4.599 0 01-1.606-1.166 4.773 4.773 0 01-.914-1.701 6.6 6.6 0 01-.252-2.047h12.191a12.5 12.5 0 00-.284-3.119 8.608 8.608 0 00-1.197-3.024 6.79 6.79 0 00-2.299-2.268c-.945-.609-2.142-.913-3.591-.913-1.113 0-2.142.21-3.087.63a7.434 7.434 0 00-2.426 1.764c-.672.756-1.197 1.648-1.575 2.677-.378 1.029-.567 2.163-.567 3.402.042 1.239.221 2.384.536 3.434.336 1.05.829 1.953 1.48 2.709a6.708 6.708 0 002.394 1.764c.966.42 2.1.63 3.402.63 1.848 0 3.381-.462 4.599-1.386 1.218-.924 2.006-2.3 2.363-4.127zm28.013-10.552h2.993c-.168-1.197-.525-2.247-1.071-3.15a7.724 7.724 0 00-2.048-2.3 8.972 8.972 0 00-2.803-1.386 11.56 11.56 0 00-3.339-.472c-1.722 0-3.255.315-4.599.945a9.497 9.497 0 00-3.339 2.52c-.882 1.071-1.554 2.331-2.016 3.78-.462 1.428-.693 2.961-.693 4.599 0 1.638.21 3.171.63 4.599.441 1.428 1.092 2.667 1.953 3.717.861 1.05 1.942 1.879 3.244 2.488 1.302.588 2.825.882 4.568.882 2.877 0 5.145-.787 6.804-2.362 1.659-1.575 2.635-3.78 2.929-6.615h-2.992a8.582 8.582 0 01-.567 2.583 6.282 6.282 0 01-1.323 2.079 6.053 6.053 0 01-1.985 1.354c-.756.315-1.627.473-2.614.473-1.344 0-2.499-.252-3.465-.756a6.985 6.985 0 01-2.394-2.016c-.609-.861-1.061-1.859-1.355-2.993a14.762 14.762 0 01-.441-3.654c0-1.176.147-2.31.441-3.402.294-1.092.746-2.058 1.355-2.898a6.93 6.93 0 012.362-2.047c.966-.504 2.121-.756 3.465-.756 1.575 0 2.93.399 4.064 1.197 1.155.798 1.9 1.995 2.236 3.591zm20.889 15.655c-.462.273-1.103.41-1.922.41-.693 0-1.249-.189-1.669-.567-.399-.399-.599-1.04-.599-1.922-.735.882-1.596 1.523-2.583 1.922-.966.378-2.016.567-3.15.567a8.667 8.667 0 01-2.11-.252 4.88 4.88 0 01-1.701-.788 3.96 3.96 0 01-1.166-1.386c-.273-.588-.409-1.291-.409-2.11 0-.924.157-1.68.472-2.268a4.044 4.044 0 011.229-1.418 5.723 5.723 0 011.764-.85 22.268 22.268 0 012.047-.473 20.904 20.904 0 012.079-.315c.672-.084 1.26-.189 1.764-.315.504-.147.903-.346 1.197-.598.294-.273.441-.662.441-1.166 0-.588-.115-1.06-.346-1.417a2.127 2.127 0 00-.851-.819 3.308 3.308 0 00-1.165-.378 8.483 8.483 0 00-1.26-.095c-1.134 0-2.079.221-2.835.662-.756.42-1.166 1.228-1.229 2.425h-2.677c.042-1.008.252-1.858.63-2.551a4.64 4.64 0 011.512-1.67 6.178 6.178 0 012.142-.945c.819-.189 1.69-.283 2.614-.283.735 0 1.46.052 2.174.157a5.536 5.536 0 011.984.662 3.656 3.656 0 011.418 1.354c.357.588.535 1.355.535 2.3v8.379c0 .63.032 1.092.095 1.386.084.294.336.441.756.441.231 0 .504-.053.819-.158v2.079zm-4.347-8.347c-.336.252-.777.441-1.323.567a33.27 33.27 0 01-1.733.283c-.588.063-1.186.147-1.795.252a6.23 6.23 0 00-1.638.441c-.483.21-.882.515-1.197.914-.294.378-.441.903-.441 1.575 0 .441.084.819.252 1.134.189.294.42.535.693.724.294.189.63.326 1.008.41.378.084.777.126 1.197.126.882 0 1.638-.116 2.268-.347.63-.252 1.144-.556 1.543-.913.399-.378.693-.777.882-1.197.189-.441.284-.851.284-1.229v-2.74zm7.924-5.513v13.923h2.677v-13.923h3.15v-2.362h-3.15v-2.268c0-.714.179-1.197.536-1.449.357-.252.861-.378 1.512-.378.231 0 .483.021.756.063.273.021.525.073.756.157v-2.331a4.617 4.617 0 00-.882-.189 6.504 6.504 0 00-.851-.063c-1.47 0-2.593.347-3.37 1.04-.756.672-1.134 1.669-1.134 2.992v2.426h-2.741v2.362h2.741zm19.509 4.221h-9.355c.042-.63.178-1.218.409-1.764.231-.567.546-1.06.945-1.48a4.18 4.18 0 011.418-.977 4.603 4.603 0 011.89-.378c.672 0 1.281.126 1.827.378.567.231 1.05.557 1.449.977.42.399.745.882.976 1.449.252.567.399 1.165.441 1.795zm2.583 4.536h-2.646c-.231 1.071-.714 1.869-1.449 2.394-.714.525-1.638.788-2.772.788-.882 0-1.648-.147-2.299-.441-.651-.294-1.187-.683-1.607-1.166a4.77 4.77 0 01-.913-1.701 6.6 6.6 0 01-.252-2.047h12.19a12.497 12.497 0 00-.283-3.119 8.608 8.608 0 00-1.197-3.024 6.793 6.793 0 00-2.3-2.268c-.945-.609-2.142-.913-3.591-.913-1.113 0-2.142.21-3.087.63a7.43 7.43 0 00-2.425 1.764c-.672.756-1.197 1.648-1.575 2.677-.378 1.029-.567 2.163-.567 3.402.042 1.239.22 2.384.535 3.434.336 1.05.83 1.953 1.481 2.709a6.708 6.708 0 002.394 1.764c.966.42 2.1.63 3.402.63 1.848 0 3.381-.462 4.599-1.386 1.218-.924 2.005-2.3 2.362-4.127zm-190.53 56.466V571.69h-2.048c-.147.84-.42 1.533-.819 2.079a4.369 4.369 0 01-1.48 1.292 6.116 6.116 0 01-1.922.661c-.714.105-1.449.158-2.205.158v2.142h5.796v16.002h2.678zm10.493-5.387h-2.678c.168 1.932.872 3.371 2.111 4.316 1.239.945 2.793 1.417 4.662 1.417 2.709 0 4.672-1.029 5.89-3.087 1.239-2.079 1.859-5.05 1.859-8.914 0-2.121-.21-3.864-.63-5.229-.399-1.386-.945-2.478-1.638-3.276-.693-.798-1.502-1.355-2.426-1.67a8.598 8.598 0 00-2.961-.504c-1.071 0-2.058.179-2.961.536a6.775 6.775 0 00-2.331 1.512 6.451 6.451 0 00-1.512 2.299c-.357.882-.535 1.859-.535 2.93 0 1.092.147 2.1.441 3.024.315.924.766 1.711 1.354 2.362a6.554 6.554 0 002.237 1.544c.882.357 1.89.535 3.024.535 1.092 0 2.1-.273 3.024-.819a5.849 5.849 0 002.142-2.268l.063.063c-.084 2.919-.536 5.093-1.355 6.521-.819 1.407-2.047 2.11-3.685 2.11-1.071 0-1.995-.294-2.772-.882-.777-.588-1.218-1.428-1.323-2.52zm8.662-9.481c0 .651-.105 1.281-.315 1.89a4.915 4.915 0 01-.913 1.575 4.649 4.649 0 01-1.449 1.071 4.603 4.603 0 01-1.89.378c-.651 0-1.25-.126-1.796-.378a4.91 4.91 0 01-1.386-1.071 5.48 5.48 0 01-.913-1.512 5.039 5.039 0 01-.315-1.764c0-.693.073-1.355.22-1.985.168-.63.42-1.186.756-1.669a3.91 3.91 0 011.355-1.197c.567-.294 1.249-.441 2.047-.441.756 0 1.418.136 1.985.409a3.945 3.945 0 011.417 1.134c.399.462.693.998.882 1.607.21.609.315 1.26.315 1.953zm28.819-1.04h2.835c-.042-1.239-.284-2.299-.725-3.181a5.98 5.98 0 00-1.764-2.237c-.735-.588-1.596-1.018-2.583-1.291-.987-.273-2.058-.41-3.213-.41-1.029 0-2.037.137-3.024.41a8.027 8.027 0 00-2.614 1.197 5.928 5.928 0 00-1.827 2.047c-.462.819-.693 1.796-.693 2.93 0 1.029.199 1.89.598 2.583a5.4 5.4 0 001.638 1.669c.693.42 1.47.767 2.331 1.04.861.252 1.733.483 2.615.693.903.189 1.785.378 2.646.567.861.189 1.627.441 2.299.756.693.294 1.239.682 1.638 1.165.42.483.63 1.113.63 1.89 0 .819-.168 1.491-.504 2.016a3.803 3.803 0 01-1.323 1.26 6.251 6.251 0 01-1.858.63c-.672.126-1.344.189-2.016.189-.84 0-1.659-.105-2.457-.315a6.29 6.29 0 01-2.111-.976 5.314 5.314 0 01-1.449-1.67c-.357-.693-.535-1.512-.535-2.457h-2.835c0 1.365.241 2.552.724 3.56a7.208 7.208 0 002.016 2.457c.861.63 1.848 1.102 2.961 1.417a13.36 13.36 0 003.591.473c1.029 0 2.058-.126 3.087-.378a8.917 8.917 0 002.835-1.134 6.672 6.672 0 002.048-2.079c.546-.861.819-1.89.819-3.087 0-1.113-.21-2.037-.63-2.772a5.257 5.257 0 00-1.638-1.827 8.108 8.108 0 00-2.3-1.134 27.364 27.364 0 00-2.646-.756 65.172 65.172 0 00-2.614-.567 15.35 15.35 0 01-2.331-.693c-.672-.273-1.218-.62-1.638-1.04-.399-.441-.599-1.008-.599-1.701 0-.735.137-1.344.41-1.827a3.451 3.451 0 011.134-1.197 5.116 5.116 0 011.638-.63 9.144 9.144 0 011.858-.189c1.554 0 2.825.368 3.812 1.103 1.008.714 1.596 1.879 1.764 3.496zm18.266 6.206h-9.356a5.42 5.42 0 01.41-1.764 4.702 4.702 0 01.945-1.481c.399-.42.871-.745 1.417-.976a4.603 4.603 0 011.89-.378c.672 0 1.281.126 1.827.378.567.231 1.05.556 1.449.976.42.399.746.882.977 1.449.252.567.399 1.166.441 1.796zm2.583 4.536h-2.646c-.231 1.071-.714 1.869-1.449 2.394-.714.525-1.638.787-2.772.787-.882 0-1.649-.147-2.3-.441-.651-.294-1.186-.682-1.606-1.165a4.773 4.773 0 01-.914-1.701 6.606 6.606 0 01-.252-2.048h12.191a12.492 12.492 0 00-.284-3.118 8.608 8.608 0 00-1.197-3.024 6.79 6.79 0 00-2.299-2.268c-.945-.609-2.142-.914-3.591-.914-1.113 0-2.142.21-3.087.63a7.434 7.434 0 00-2.426 1.764c-.672.756-1.197 1.649-1.575 2.678-.378 1.029-.567 2.163-.567 3.402.042 1.239.221 2.383.536 3.433.336 1.05.829 1.953 1.48 2.709a6.708 6.708 0 002.394 1.764c.966.42 2.1.63 3.402.63 1.848 0 3.381-.462 4.599-1.386 1.218-.924 2.006-2.299 2.363-4.126zm3.104-11.12v22.491h2.678v-8.379h.063a4.66 4.66 0 001.071 1.229 6.38 6.38 0 001.386.756c.483.189.966.325 1.449.409.504.084.955.126 1.354.126 1.239 0 2.321-.22 3.245-.661.945-.441 1.722-1.04 2.331-1.796a7.533 7.533 0 001.386-2.709c.315-1.029.472-2.121.472-3.276 0-1.155-.157-2.247-.472-3.276a7.942 7.942 0 00-1.418-2.709 6.44 6.44 0 00-2.331-1.89c-.924-.462-2.016-.693-3.276-.693-1.134 0-2.173.21-3.118.63-.945.399-1.638 1.05-2.079 1.953h-.063v-2.205h-2.678zm12.6 8.001c0 .798-.084 1.575-.252 2.331a6.167 6.167 0 01-.819 2.016 4.265 4.265 0 01-1.512 1.418c-.609.357-1.375.535-2.299.535-.924 0-1.712-.168-2.363-.504a4.898 4.898 0 01-1.606-1.386 5.921 5.921 0 01-.882-1.953 9.575 9.575 0 01-.284-2.331 10 10 0 01.252-2.236 5.921 5.921 0 01.882-1.953 4.55 4.55 0 011.544-1.418c.63-.357 1.396-.535 2.299-.535.861 0 1.607.168 2.237.504a4.299 4.299 0 011.575 1.354c.42.567.724 1.218.913 1.953.21.714.315 1.449.315 2.205zm14.08-6.142h2.678a7.863 7.863 0 01.189-1.985c.168-.672.43-1.27.787-1.795a4.093 4.093 0 011.355-1.26c.567-.336 1.239-.504 2.016-.504.588 0 1.144.094 1.669.283.525.189.977.462 1.355.819.399.357.714.788.945 1.292.231.483.346 1.029.346 1.638 0 .777-.126 1.459-.378 2.047a5.015 5.015 0 01-1.071 1.638c-.462.504-1.05 1.008-1.764 1.512a78.442 78.442 0 01-2.488 1.607c-.777.462-1.523.955-2.237 1.48a10.545 10.545 0 00-1.921 1.827c-.567.693-1.04 1.512-1.418 2.457-.357.924-.588 2.048-.693 3.371h14.585v-2.363H437.32a4.217 4.217 0 01.787-1.827c.42-.546.914-1.05 1.481-1.512a16.124 16.124 0 011.921-1.291l2.079-1.26a34.17 34.17 0 002.016-1.386 10.554 10.554 0 001.733-1.607 7.384 7.384 0 001.197-2.047c.315-.756.472-1.628.472-2.615 0-1.05-.189-1.974-.567-2.772a5.415 5.415 0 00-1.48-1.984 6.259 6.259 0 00-2.237-1.229 8.144 8.144 0 00-2.709-.441c-1.176 0-2.226.2-3.15.599a6.49 6.49 0 00-2.331 1.669c-.609.693-1.06 1.523-1.354 2.489-.294.966-.41 2.016-.347 3.15zm20.258 3.433v-1.795c.021-.672.074-1.334.158-1.985.105-.672.241-1.323.409-1.953.189-.63.452-1.176.788-1.638a4.144 4.144 0 011.323-1.165c.525-.294 1.165-.441 1.921-.441s1.397.147 1.922.441c.525.294.955.682 1.291 1.165.357.462.62 1.008.788 1.638.189.63.325 1.281.409 1.953.105.651.158 1.313.158 1.985.021.651.031 1.249.031 1.795 0 .84-.031 1.785-.094 2.835a11.117 11.117 0 01-.504 2.93 5.403 5.403 0 01-1.355 2.299c-.63.63-1.512.945-2.646.945s-2.016-.315-2.646-.945a5.682 5.682 0 01-1.386-2.299 13.147 13.147 0 01-.504-2.93 71.598 71.598 0 01-.063-2.835zm-2.835.032c0 .819.021 1.669.063 2.551.042.882.147 1.743.315 2.583.168.84.41 1.638.725 2.394a6.456 6.456 0 001.291 1.953c.546.567 1.229 1.019 2.048 1.355.84.315 1.837.472 2.992.472 1.176 0 2.174-.157 2.993-.472.819-.336 1.501-.788 2.047-1.355a6.459 6.459 0 001.292-1.953c.315-.756.556-1.554.724-2.394.168-.84.273-1.701.315-2.583.042-.882.063-1.732.063-2.551 0-.819-.021-1.67-.063-2.552a17.364 17.364 0 00-.315-2.583 12.665 12.665 0 00-.724-2.394 6.352 6.352 0 00-1.292-1.984c-.546-.567-1.239-1.019-2.079-1.355-.819-.336-1.806-.504-2.961-.504-1.155 0-2.152.168-2.992.504-.819.336-1.502.788-2.048 1.355a6.35 6.35 0 00-1.291 1.984 12.667 12.667 0 00-.725 2.394c-.168.84-.273 1.701-.315 2.583a53.713 53.713 0 00-.063 2.552zm17.549-3.465h2.678a7.863 7.863 0 01.189-1.985c.168-.672.43-1.27.787-1.795a4.093 4.093 0 011.355-1.26c.567-.336 1.239-.504 2.016-.504.588 0 1.144.094 1.669.283.525.189.977.462 1.355.819.399.357.714.788.945 1.292.231.483.346 1.029.346 1.638 0 .777-.126 1.459-.378 2.047a5.015 5.015 0 01-1.071 1.638c-.462.504-1.05 1.008-1.764 1.512a78.442 78.442 0 01-2.488 1.607c-.777.462-1.523.955-2.237 1.48a10.545 10.545 0 00-1.921 1.827c-.567.693-1.04 1.512-1.418 2.457-.357.924-.588 2.048-.693 3.371h14.585v-2.363h-11.466a4.217 4.217 0 01.787-1.827c.42-.546.914-1.05 1.481-1.512a16.124 16.124 0 011.921-1.291l2.079-1.26a34.17 34.17 0 002.016-1.386 10.554 10.554 0 001.733-1.607 7.384 7.384 0 001.197-2.047c.315-.756.472-1.628.472-2.615 0-1.05-.189-1.974-.567-2.772a5.415 5.415 0 00-1.48-1.984 6.259 6.259 0 00-2.237-1.229 8.144 8.144 0 00-2.709-.441c-1.176 0-2.226.2-3.15.599a6.49 6.49 0 00-2.331 1.669c-.609.693-1.06 1.523-1.354 2.489-.294.966-.41 2.016-.347 3.15zm20.258 3.433v-1.795c.021-.672.074-1.334.158-1.985.105-.672.241-1.323.409-1.953.189-.63.452-1.176.788-1.638a4.144 4.144 0 011.323-1.165c.525-.294 1.165-.441 1.921-.441s1.397.147 1.922.441c.525.294.955.682 1.291 1.165.357.462.62 1.008.788 1.638.189.63.325 1.281.409 1.953.105.651.158 1.313.158 1.985.021.651.031 1.249.031 1.795 0 .84-.031 1.785-.094 2.835a11.117 11.117 0 01-.504 2.93 5.403 5.403 0 01-1.355 2.299c-.63.63-1.512.945-2.646.945s-2.016-.315-2.646-.945a5.682 5.682 0 01-1.386-2.299 13.147 13.147 0 01-.504-2.93 71.598 71.598 0 01-.063-2.835zm-2.835.032c0 .819.021 1.669.063 2.551.042.882.147 1.743.315 2.583.168.84.41 1.638.725 2.394a6.456 6.456 0 001.291 1.953c.546.567 1.229 1.019 2.048 1.355.84.315 1.837.472 2.992.472 1.176 0 2.174-.157 2.993-.472.819-.336 1.501-.788 2.047-1.355a6.459 6.459 0 001.292-1.953c.315-.756.556-1.554.724-2.394.168-.84.273-1.701.315-2.583.042-.882.063-1.732.063-2.551 0-.819-.021-1.67-.063-2.552a17.364 17.364 0 00-.315-2.583 12.665 12.665 0 00-.724-2.394 6.352 6.352 0 00-1.292-1.984c-.546-.567-1.239-1.019-2.079-1.355-.819-.336-1.806-.504-2.961-.504-1.155 0-2.152.168-2.992.504-.819.336-1.502.788-2.048 1.355a6.35 6.35 0 00-1.291 1.984 12.667 12.667 0 00-.725 2.394c-.168.84-.273 1.701-.315 2.583a53.713 53.713 0 00-.063 2.552z" fill="#9FACBA"/>
    <path d="M332.129 719.756v-14.175h3.528c1.218 0 2.236.179 3.055.536.84.336 1.512.829 2.016 1.48s.861 1.439 1.071 2.363c.231.903.347 1.921.347 3.055 0 1.239-.158 2.289-.473 3.15-.315.861-.735 1.565-1.26 2.111a4.655 4.655 0 01-1.795 1.134 6.351 6.351 0 01-2.079.346h-4.41zm-4.946-18.333v22.491h9.702c1.722 0 3.213-.283 4.473-.85 1.281-.588 2.342-1.386 3.182-2.394.861-1.008 1.501-2.205 1.921-3.591.42-1.386.63-2.898.63-4.536 0-1.869-.262-3.497-.787-4.883-.504-1.386-1.218-2.541-2.142-3.465a8.62 8.62 0 00-3.245-2.079c-1.239-.462-2.583-.693-4.032-.693h-9.702zm33.82 12.6h-7.276c.021-.315.084-.672.189-1.071.126-.399.325-.777.598-1.134a3.43 3.43 0 011.134-.882c.483-.252 1.082-.378 1.796-.378 1.092 0 1.9.294 2.425.882.546.588.924 1.449 1.134 2.583zm-7.276 2.835h11.749a11.494 11.494 0 00-.315-3.622 8.71 8.71 0 00-1.449-3.087 6.942 6.942 0 00-2.52-2.142c-1.029-.546-2.236-.819-3.622-.819-1.239 0-2.373.22-3.402.661a7.936 7.936 0 00-2.615 1.827 7.816 7.816 0 00-1.701 2.709c-.399 1.05-.598 2.184-.598 3.402 0 1.26.189 2.415.567 3.465.399 1.05.955 1.953 1.669 2.709.714.756 1.586 1.344 2.615 1.764 1.029.399 2.184.599 3.465.599 1.848 0 3.423-.42 4.725-1.26 1.302-.84 2.268-2.237 2.898-4.19h-3.938c-.147.504-.546.987-1.197 1.449-.651.441-1.428.662-2.331.662-1.26 0-2.226-.326-2.898-.977-.672-.651-1.039-1.701-1.102-3.15zm17.85 1.764h-4.253c.042 1.092.284 2.006.725 2.741a5.678 5.678 0 001.732 1.732 7.5 7.5 0 002.426.945c.903.189 1.827.284 2.772.284.924 0 1.827-.095 2.709-.284.903-.168 1.701-.472 2.394-.913a5.071 5.071 0 001.669-1.733c.441-.735.662-1.638.662-2.709 0-.756-.147-1.386-.441-1.89a3.829 3.829 0 00-1.166-1.291 5.95 5.95 0 00-1.669-.851 17.86 17.86 0 00-1.89-.535 75.57 75.57 0 00-1.859-.41 18.626 18.626 0 01-1.638-.409c-.462-.168-.84-.378-1.134-.63a1.228 1.228 0 01-.441-.977c0-.336.084-.598.252-.787.168-.21.368-.368.599-.473.252-.105.525-.168.819-.189.294-.042.567-.063.819-.063.798 0 1.491.158 2.079.473.588.294.913.871.976 1.732h4.253c-.084-1.008-.347-1.837-.788-2.488a4.894 4.894 0 00-1.606-1.607c-.651-.399-1.397-.682-2.237-.85a12.664 12.664 0 00-2.551-.252c-.882 0-1.743.084-2.583.252-.84.147-1.596.42-2.268.819a4.525 4.525 0 00-1.638 1.575c-.399.672-.599 1.533-.599 2.583 0 .714.147 1.323.441 1.827.294.483.683.892 1.166 1.228a7.402 7.402 0 001.638.788c.63.189 1.27.357 1.921.504 1.596.336 2.835.672 3.717 1.008.903.336 1.355.84 1.355 1.512 0 .399-.095.735-.284 1.008-.189.252-.43.462-.724.63a3.844 3.844 0 01-.945.346 5.303 5.303 0 01-.977.095c-.441 0-.871-.053-1.291-.158a3.536 3.536 0 01-1.071-.472 3.05 3.05 0 01-.788-.851c-.189-.357-.283-.777-.283-1.26zm24.524-5.26h4.379c-.063-1.05-.315-1.953-.756-2.709a5.862 5.862 0 00-1.733-1.922 7.064 7.064 0 00-2.394-1.165 10.042 10.042 0 00-2.772-.378c-1.323 0-2.499.22-3.528.661a7.331 7.331 0 00-2.614 1.859c-.714.777-1.26 1.711-1.638 2.803-.357 1.071-.536 2.237-.536 3.497 0 1.218.2 2.341.599 3.37a7.854 7.854 0 001.669 2.615 7.657 7.657 0 002.583 1.732c1.029.399 2.153.599 3.371.599 2.163 0 3.937-.567 5.323-1.701 1.386-1.134 2.226-2.783 2.52-4.946h-4.315c-.147 1.008-.515 1.817-1.103 2.426-.567.588-1.386.882-2.457.882-.693 0-1.281-.158-1.764-.473a3.729 3.729 0 01-1.165-1.197 6.06 6.06 0 01-.599-1.669 8.852 8.852 0 01-.189-1.796c0-.609.063-1.218.189-1.827.126-.63.336-1.197.63-1.701a3.828 3.828 0 011.197-1.26c.483-.336 1.082-.504 1.796-.504 1.911 0 3.013.935 3.307 2.804zm6.983-5.733v16.285h4.473v-7.339c0-.735.073-1.418.22-2.048.147-.63.389-1.176.725-1.638a3.672 3.672 0 011.386-1.134c.567-.273 1.26-.409 2.079-.409.273 0 .556.021.85.063.294.021.546.052.756.094v-4.158a3.483 3.483 0 00-.976-.157c-.567 0-1.113.084-1.638.252a5.7 5.7 0 00-1.481.724 5.092 5.092 0 00-1.228 1.103c-.357.42-.641.882-.851 1.386h-.063v-3.024h-4.252zm16.824-2.52v-3.686h-4.473v3.686h4.473zm-4.473 2.52v16.285h4.473v-16.285h-4.473zm16.199 13.356c-.714 0-1.323-.147-1.827-.441a3.748 3.748 0 01-1.228-1.134 5.666 5.666 0 01-.662-1.67 9.769 9.769 0 01-.189-1.921c0-.672.063-1.323.189-1.953.126-.63.336-1.187.63-1.67a3.729 3.729 0 011.197-1.165c.504-.315 1.124-.473 1.859-.473.714 0 1.312.158 1.795.473.504.294.914.693 1.229 1.197.315.483.535 1.039.661 1.669.147.63.221 1.271.221 1.922s-.063 1.291-.189 1.921a4.72 4.72 0 01-.662 1.67c-.294.462-.693.84-1.197 1.134-.483.294-1.092.441-1.827.441zm-8.221-13.356v21.987h4.473v-7.718h.063a5.431 5.431 0 002.079 1.827 6.584 6.584 0 002.803.599c1.197 0 2.237-.231 3.119-.693a6.436 6.436 0 002.236-1.859 7.857 7.857 0 001.355-2.677c.294-1.008.441-2.058.441-3.15 0-1.155-.147-2.258-.441-3.308-.294-1.071-.746-2.005-1.355-2.803a6.828 6.828 0 00-2.299-1.922c-.924-.483-2.027-.724-3.308-.724-1.008 0-1.932.199-2.772.598-.84.399-1.533 1.04-2.079 1.922h-.063v-2.079h-4.252zm24.909 0v-4.883h-4.473v4.883h-2.709v2.992h2.709v9.608c0 .819.137 1.48.41 1.984.273.504.64.893 1.102 1.166a4.562 4.562 0 001.638.535c.63.105 1.292.158 1.985.158.441 0 .892-.011 1.354-.032.462-.021.882-.063 1.26-.126v-3.465c-.21.042-.43.074-.661.095a8.024 8.024 0 01-.725.031c-.756 0-1.26-.126-1.512-.378s-.378-.756-.378-1.512v-8.064h3.276v-2.992h-3.276zm9.986-2.52v-3.686h-4.473v3.686h4.473zm-4.473 2.52v16.285h4.473v-16.285h-4.473zm11.947 8.158c0-.651.063-1.291.189-1.921.126-.63.336-1.187.63-1.67a3.625 3.625 0 011.228-1.165c.504-.315 1.134-.473 1.89-.473s1.386.158 1.89.473c.525.294.935.682 1.229 1.165.315.483.535 1.04.661 1.67.126.63.189 1.27.189 1.921s-.063 1.292-.189 1.922a5.05 5.05 0 01-.661 1.669 3.286 3.286 0 01-1.229 1.166c-.504.294-1.134.441-1.89.441s-1.386-.147-1.89-.441a3.627 3.627 0 01-1.228-1.166 5.496 5.496 0 01-.63-1.669 9.779 9.779 0 01-.189-1.922zm-4.473 0c0 1.302.199 2.478.598 3.528a7.816 7.816 0 001.701 2.709 7.55 7.55 0 002.646 1.701c1.029.399 2.184.599 3.465.599 1.281 0 2.436-.2 3.465-.599 1.05-.399 1.943-.966 2.678-1.701a7.816 7.816 0 001.701-2.709c.399-1.05.598-2.226.598-3.528s-.199-2.478-.598-3.528c-.399-1.071-.966-1.974-1.701-2.709-.735-.756-1.628-1.333-2.678-1.732-1.029-.42-2.184-.63-3.465-.63-1.281 0-2.436.21-3.465.63a7.337 7.337 0 00-2.646 1.732c-.735.735-1.302 1.638-1.701 2.709-.399 1.05-.598 2.226-.598 3.528zm19.743-8.158v16.285h4.473v-8.536c0-1.659.273-2.846.819-3.56.546-.735 1.428-1.102 2.646-1.102 1.071 0 1.816.336 2.236 1.008.42.651.63 1.648.63 2.992v9.198h4.473v-10.017c0-1.008-.094-1.921-.283-2.74-.168-.84-.473-1.544-.914-2.111-.441-.588-1.05-1.039-1.827-1.354-.756-.336-1.732-.504-2.929-.504a6.25 6.25 0 00-2.772.661c-.903.42-1.638 1.103-2.205 2.048h-.095v-2.268h-4.252z" fill="#284664"/>
    <path d="M343.28 843.935h2.992c-.168-1.197-.525-2.247-1.071-3.15a7.717 7.717 0 00-2.047-2.299 8.978 8.978 0 00-2.804-1.386 11.561 11.561 0 00-3.339-.473c-1.722 0-3.255.315-4.599.945a9.497 9.497 0 00-3.339 2.52c-.882 1.071-1.554 2.331-2.016 3.78-.462 1.428-.693 2.961-.693 4.599 0 1.638.21 3.171.63 4.599.441 1.428 1.092 2.667 1.953 3.717.861 1.05 1.943 1.88 3.245 2.489 1.302.588 2.824.882 4.567.882 2.877 0 5.145-.788 6.804-2.363 1.659-1.575 2.636-3.78 2.93-6.615H343.5a8.582 8.582 0 01-.567 2.583 6.282 6.282 0 01-1.323 2.079 6.051 6.051 0 01-1.984 1.355c-.756.315-1.628.472-2.615.472-1.344 0-2.499-.252-3.465-.756a6.985 6.985 0 01-2.394-2.016c-.609-.861-1.06-1.858-1.354-2.992a14.762 14.762 0 01-.441-3.654c0-1.176.147-2.31.441-3.402.294-1.092.745-2.058 1.354-2.898a6.935 6.935 0 012.363-2.048c.966-.504 2.121-.756 3.465-.756 1.575 0 2.929.399 4.063 1.197 1.155.798 1.901 1.995 2.237 3.591zm8.414 7.592c0-.987.126-1.859.378-2.615.273-.777.641-1.428 1.103-1.953a4.667 4.667 0 011.606-1.197 4.94 4.94 0 011.985-.409 4.72 4.72 0 011.953.409 4.59 4.59 0 011.638 1.197c.462.525.819 1.176 1.071 1.953.273.756.409 1.628.409 2.615 0 .987-.136 1.869-.409 2.646-.252.756-.609 1.396-1.071 1.921a4.772 4.772 0 01-1.638 1.166 4.72 4.72 0 01-1.953.409 4.94 4.94 0 01-1.985-.409 4.855 4.855 0 01-1.606-1.166c-.462-.525-.83-1.165-1.103-1.921-.252-.777-.378-1.659-.378-2.646zm-2.835 0c0 1.197.168 2.31.504 3.339a7.785 7.785 0 001.512 2.709c.672.756 1.502 1.354 2.489 1.795.987.42 2.121.63 3.402.63 1.302 0 2.436-.21 3.402-.63.987-.441 1.816-1.039 2.488-1.795a7.785 7.785 0 001.512-2.709c.336-1.029.504-2.142.504-3.339s-.168-2.31-.504-3.339c-.336-1.05-.84-1.953-1.512-2.709a7.03 7.03 0 00-2.488-1.827c-.966-.441-2.1-.662-3.402-.662-1.281 0-2.415.221-3.402.662a7.034 7.034 0 00-2.489 1.827c-.672.756-1.176 1.659-1.512 2.709-.336 1.029-.504 2.142-.504 3.339zm20.055-5.796v13.923h2.678v-13.923h3.15v-2.363h-3.15V841.1c0-.714.178-1.197.535-1.449.357-.252.861-.378 1.512-.378.231 0 .483.021.756.063.273.021.525.074.756.158v-2.331a4.617 4.617 0 00-.882-.189 6.49 6.49 0 00-.85-.063c-1.47 0-2.594.346-3.371 1.039-.756.672-1.134 1.67-1.134 2.993v2.425h-2.74v2.363h2.74zm8.75 0v13.923h2.677v-13.923h3.15v-2.363h-3.15V841.1c0-.714.179-1.197.536-1.449.357-.252.861-.378 1.512-.378.231 0 .483.021.756.063.273.021.525.074.756.158v-2.331a4.617 4.617 0 00-.882-.189 6.504 6.504 0 00-.851-.063c-1.47 0-2.593.346-3.37 1.039-.756.672-1.134 1.67-1.134 2.993v2.425h-2.741v2.363h2.741zm19.509 4.221h-9.356a5.42 5.42 0 01.41-1.764 4.702 4.702 0 01.945-1.481c.399-.42.871-.745 1.417-.976a4.603 4.603 0 011.89-.378c.672 0 1.281.126 1.827.378.567.231 1.05.556 1.449.976.42.399.746.882.977 1.449.252.567.399 1.166.441 1.796zm2.583 4.536h-2.646c-.231 1.071-.714 1.869-1.449 2.394-.714.525-1.638.787-2.772.787-.882 0-1.649-.147-2.3-.441-.651-.294-1.186-.682-1.606-1.165a4.773 4.773 0 01-.914-1.701 6.606 6.606 0 01-.252-2.048h12.191a12.492 12.492 0 00-.284-3.118 8.608 8.608 0 00-1.197-3.024 6.79 6.79 0 00-2.299-2.268c-.945-.609-2.142-.914-3.591-.914-1.113 0-2.142.21-3.087.63a7.434 7.434 0 00-2.426 1.764c-.672.756-1.197 1.649-1.575 2.678-.378 1.029-.567 2.163-.567 3.402.042 1.239.221 2.383.536 3.433.336 1.05.829 1.953 1.48 2.709a6.708 6.708 0 002.394 1.764c.966.42 2.1.63 3.402.63 1.848 0 3.381-.462 4.599-1.386 1.218-.924 2.006-2.299 2.363-4.126zm14.318-4.536h-9.355c.042-.63.178-1.218.409-1.764a4.702 4.702 0 01.945-1.481c.399-.42.872-.745 1.418-.976a4.603 4.603 0 011.89-.378c.672 0 1.281.126 1.827.378.567.231 1.05.556 1.449.976.42.399.745.882.976 1.449.252.567.399 1.166.441 1.796zm2.583 4.536h-2.646c-.231 1.071-.714 1.869-1.449 2.394-.714.525-1.638.787-2.772.787-.882 0-1.648-.147-2.299-.441-.651-.294-1.187-.682-1.607-1.165a4.77 4.77 0 01-.913-1.701 6.606 6.606 0 01-.252-2.048h12.19a12.49 12.49 0 00-.283-3.118 8.608 8.608 0 00-1.197-3.024 6.793 6.793 0 00-2.3-2.268c-.945-.609-2.142-.914-3.591-.914-1.113 0-2.142.21-3.087.63a7.43 7.43 0 00-2.425 1.764c-.672.756-1.197 1.649-1.575 2.678-.378 1.029-.567 2.163-.567 3.402.042 1.239.22 2.383.535 3.433.336 1.05.83 1.953 1.481 2.709a6.708 6.708 0 002.394 1.764c.966.42 2.1.63 3.402.63 1.848 0 3.381-.462 4.599-1.386 1.218-.924 2.005-2.299 2.362-4.126zm22.816-5.891h2.772c-.105-.966-.357-1.795-.756-2.488a5.451 5.451 0 00-1.543-1.764c-.609-.462-1.323-.798-2.142-1.008a9.254 9.254 0 00-2.583-.347c-1.281 0-2.405.231-3.371.693a6.641 6.641 0 00-2.425 1.859c-.63.777-1.103 1.701-1.418 2.772-.315 1.05-.472 2.184-.472 3.402s.157 2.341.472 3.37c.336 1.008.819 1.88 1.449 2.615a6.555 6.555 0 002.394 1.701c.966.399 2.069.598 3.308.598 2.079 0 3.717-.546 4.914-1.638 1.218-1.092 1.974-2.646 2.268-4.662h-2.741c-.168 1.26-.63 2.237-1.386 2.93-.735.693-1.764 1.039-3.087 1.039-.84 0-1.564-.168-2.173-.504a4.291 4.291 0 01-1.481-1.323 6.372 6.372 0 01-.85-1.921 9.595 9.595 0 01-.252-2.205c0-.819.084-1.607.252-2.363.168-.777.441-1.459.819-2.047a4.463 4.463 0 011.575-1.418c.651-.357 1.459-.535 2.425-.535 1.134 0 2.037.283 2.709.85.672.567 1.113 1.365 1.323 2.394zm19.327 11.057v-16.286h-2.677v9.198a6.44 6.44 0 01-.315 2.048 4.439 4.439 0 01-.882 1.606 3.962 3.962 0 01-1.512 1.071c-.588.252-1.292.378-2.111.378-1.029 0-1.837-.294-2.425-.882-.588-.588-.882-1.386-.882-2.394v-11.025h-2.678v10.71c0 .882.084 1.691.252 2.426.189.714.504 1.333.945 1.858.441.525 1.019.935 1.733 1.229.714.273 1.606.409 2.677.409 1.197 0 2.237-.231 3.119-.693.882-.483 1.606-1.228 2.173-2.236h.063v2.583h2.52zm4.099-16.286v22.491h2.677v-8.379h.063a4.66 4.66 0 001.071 1.229 6.38 6.38 0 001.386.756c.483.189.966.325 1.449.409.504.084.956.126 1.355.126 1.239 0 2.32-.22 3.244-.661.945-.441 1.722-1.04 2.331-1.796a7.533 7.533 0 001.386-2.709c.315-1.029.473-2.121.473-3.276 0-1.155-.158-2.247-.473-3.276a7.94 7.94 0 00-1.417-2.709 6.44 6.44 0 00-2.331-1.89c-.924-.462-2.016-.693-3.276-.693-1.134 0-2.174.21-3.119.63-.945.399-1.638 1.05-2.079 1.953h-.063v-2.205h-2.677zm12.6 8.001c0 .798-.084 1.575-.252 2.331a6.167 6.167 0 01-.819 2.016 4.265 4.265 0 01-1.512 1.418c-.609.357-1.376.535-2.3.535-.924 0-1.711-.168-2.362-.504a4.901 4.901 0 01-1.607-1.386 5.921 5.921 0 01-.882-1.953 9.574 9.574 0 01-.283-2.331 10 10 0 01.252-2.236 5.921 5.921 0 01.882-1.953 4.546 4.546 0 011.543-1.418c.63-.357 1.397-.535 2.3-.535.861 0 1.606.168 2.236.504a4.299 4.299 0 011.575 1.354c.42.567.725 1.218.914 1.953.21.714.315 1.449.315 2.205zm-148.064 45.489v22.491h2.835V901.3h.063l11.75 18.049h3.276v-22.491h-2.835v18.239h-.063l-11.844-18.239h-3.182zm36.733 22.428c-.462.273-1.102.41-1.921.41-.693 0-1.25-.189-1.67-.567-.399-.399-.598-1.04-.598-1.922-.735.882-1.596 1.523-2.583 1.922-.966.378-2.016.567-3.15.567a8.675 8.675 0 01-2.111-.252 4.88 4.88 0 01-1.701-.788 3.957 3.957 0 01-1.165-1.386c-.273-.588-.41-1.291-.41-2.11 0-.924.158-1.68.473-2.268a4.042 4.042 0 011.228-1.418 5.723 5.723 0 011.764-.85 22.289 22.289 0 012.048-.473 20.904 20.904 0 012.079-.315c.672-.084 1.26-.189 1.764-.315.504-.147.903-.346 1.197-.598.294-.273.441-.662.441-1.166 0-.588-.116-1.06-.347-1.417a2.125 2.125 0 00-.85-.819 3.314 3.314 0 00-1.166-.378 8.483 8.483 0 00-1.26-.095c-1.134 0-2.079.221-2.835.662-.756.42-1.165 1.228-1.228 2.425h-2.678c.042-1.008.252-1.858.63-2.551a4.64 4.64 0 011.512-1.67 6.178 6.178 0 012.142-.945 11.608 11.608 0 012.615-.283c.735 0 1.459.052 2.173.157a5.541 5.541 0 011.985.662c.588.315 1.06.766 1.417 1.354.357.588.536 1.355.536 2.3v8.379c0 .63.031 1.092.094 1.386.084.294.336.441.756.441.231 0 .504-.053.819-.158v2.079zm-4.347-8.347c-.336.252-.777.441-1.323.567-.546.105-1.123.199-1.732.283-.588.063-1.187.147-1.796.252a6.23 6.23 0 00-1.638.441c-.483.21-.882.515-1.197.914-.294.378-.441.903-.441 1.575 0 .441.084.819.252 1.134.189.294.42.535.693.724.294.189.63.326 1.008.41.378.084.777.126 1.197.126.882 0 1.638-.116 2.268-.347.63-.252 1.145-.556 1.544-.913.399-.378.693-.777.882-1.197.189-.441.283-.851.283-1.229v-2.74zm6.916-7.875v22.491h2.678v-8.379h.063c.294.483.651.892 1.071 1.228a6.38 6.38 0 001.386.756 7.5 7.5 0 001.449.41c.504.084.955.126 1.354.126 1.239 0 2.321-.221 3.245-.662.945-.441 1.722-1.039 2.331-1.795a7.533 7.533 0 001.386-2.709c.315-1.029.472-2.121.472-3.276 0-1.155-.157-2.247-.472-3.276a7.942 7.942 0 00-1.418-2.709 6.44 6.44 0 00-2.331-1.89c-.924-.462-2.016-.693-3.276-.693-1.134 0-2.173.21-3.118.63-.945.399-1.638 1.05-2.079 1.953h-.063v-2.205h-2.678zm12.6 8.001c0 .798-.084 1.575-.252 2.331a6.167 6.167 0 01-.819 2.016 4.263 4.263 0 01-1.512 1.417c-.609.357-1.375.536-2.299.536-.924 0-1.712-.168-2.363-.504a4.898 4.898 0 01-1.606-1.386 5.921 5.921 0 01-.882-1.953 9.575 9.575 0 01-.284-2.331c0-.756.084-1.502.252-2.237a5.921 5.921 0 01.882-1.953 4.546 4.546 0 011.544-1.417c.63-.357 1.396-.536 2.299-.536.861 0 1.607.168 2.237.504a4.301 4.301 0 011.575 1.355c.42.567.724 1.218.913 1.953.21.714.315 1.449.315 2.205zm6.118-14.207v22.491h2.677v-6.174l2.52-2.331 5.576 8.505h3.402l-6.93-10.363 6.457-5.922h-3.591l-7.434 7.119v-13.325h-2.677zm18.994 3.276v-3.276h-2.677v3.276h2.677zm-2.677 2.93v16.285h2.677v-16.285h-2.677zm6.808 0v16.285h2.677v-9.198c0-.735.095-1.407.284-2.016.21-.63.514-1.176.913-1.638a4.016 4.016 0 011.481-1.071c.609-.252 1.323-.378 2.142-.378 1.029 0 1.837.294 2.425.882.588.588.882 1.386.882 2.394v11.025h2.678v-10.71c0-.882-.095-1.68-.284-2.394-.168-.735-.472-1.365-.913-1.89-.441-.525-1.019-.934-1.733-1.228-.714-.294-1.606-.441-2.677-.441-2.415 0-4.179.987-5.292 2.961h-.063v-2.583h-2.52zm19.124 11.151h-2.678c.042 1.008.252 1.869.63 2.583a4.92 4.92 0 001.512 1.701c.63.42 1.355.724 2.174.913.819.189 1.68.284 2.583.284.819 0 1.638-.084 2.457-.252.84-.147 1.585-.42 2.236-.819a4.618 4.618 0 001.607-1.575c.42-.651.63-1.47.63-2.457 0-.777-.158-1.428-.473-1.953a3.713 3.713 0 00-1.197-1.292 5.867 5.867 0 00-1.701-.85c-.63-.21-1.281-.389-1.953-.536-.63-.147-1.26-.283-1.89-.409a13.778 13.778 0 01-1.701-.504 4.56 4.56 0 01-1.26-.756 1.584 1.584 0 01-.472-1.166c0-.42.105-.756.315-1.008.21-.273.483-.483.819-.63a3.756 3.756 0 011.102-.346c.42-.063.83-.095 1.229-.095.441 0 .871.053 1.291.158.441.084.84.231 1.197.441.357.21.651.493.882.85.231.336.368.767.41 1.292h2.677c-.063-.987-.273-1.806-.63-2.457a4.042 4.042 0 00-1.449-1.575c-.588-.399-1.27-.672-2.047-.819a12.085 12.085 0 00-2.552-.252c-.714 0-1.438.094-2.173.283a6.212 6.212 0 00-1.953.819c-.567.357-1.04.83-1.418 1.418-.357.588-.535 1.291-.535 2.11 0 1.05.262 1.869.787 2.457a5.505 5.505 0 001.953 1.386c.798.315 1.659.567 2.583.756.924.168 1.775.368 2.552.599.798.21 1.459.493 1.984.85.525.357.788.882.788 1.575 0 .504-.126.924-.378 1.26a2.437 2.437 0 01-.977.725 4.627 4.627 0 01-1.26.346 9.806 9.806 0 01-1.323.095 8.167 8.167 0 01-1.606-.158 4.954 4.954 0 01-1.386-.504 3.097 3.097 0 01-.977-.976c-.252-.42-.388-.924-.409-1.512zm32.042 5.134v-22.333h-2.048c-.147.84-.42 1.533-.819 2.079a4.366 4.366 0 01-1.48 1.291 6.117 6.117 0 01-1.922.662 15.14 15.14 0 01-2.205.157v2.142h5.796v16.002h2.678zm10.43-10.993v-1.796c.021-.672.073-1.333.157-1.984.105-.672.242-1.323.41-1.953.189-.63.451-1.176.787-1.638a4.147 4.147 0 011.323-1.166c.525-.294 1.166-.441 1.922-.441s1.396.147 1.921.441c.525.294.956.683 1.292 1.166a4.57 4.57 0 01.787 1.638c.189.63.326 1.281.41 1.953.105.651.157 1.312.157 1.984.021.651.032 1.25.032 1.796 0 .84-.032 1.785-.095 2.835a11.11 11.11 0 01-.504 2.929 5.405 5.405 0 01-1.354 2.3c-.63.63-1.512.945-2.646.945s-2.016-.315-2.646-.945a5.686 5.686 0 01-1.386-2.3c-.273-.924-.441-1.9-.504-2.929a71.598 71.598 0 01-.063-2.835zm-2.835.031c0 .819.021 1.67.063 2.552.042.882.147 1.743.315 2.583.168.84.409 1.638.724 2.394a6.459 6.459 0 001.292 1.953c.546.567 1.228 1.018 2.047 1.354.84.315 1.838.473 2.993.473 1.176 0 2.173-.158 2.992-.473.819-.336 1.502-.787 2.048-1.354a6.456 6.456 0 001.291-1.953c.315-.756.557-1.554.725-2.394.168-.84.273-1.701.315-2.583.042-.882.063-1.733.063-2.552s-.021-1.669-.063-2.551a17.364 17.364 0 00-.315-2.583c-.168-.84-.41-1.638-.725-2.394a6.354 6.354 0 00-1.291-1.985c-.546-.567-1.239-1.018-2.079-1.354-.819-.336-1.806-.504-2.961-.504-1.155 0-2.153.168-2.993.504-.819.336-1.501.787-2.047 1.354a6.357 6.357 0 00-1.292 1.985 12.665 12.665 0 00-.724 2.394c-.168.84-.273 1.701-.315 2.583a53.672 53.672 0 00-.063 2.551zm20.321-.031v-1.796c.021-.672.073-1.333.157-1.984.105-.672.242-1.323.41-1.953.189-.63.451-1.176.787-1.638a4.147 4.147 0 011.323-1.166c.525-.294 1.166-.441 1.922-.441s1.396.147 1.921.441c.525.294.956.683 1.292 1.166a4.57 4.57 0 01.787 1.638c.189.63.326 1.281.41 1.953.105.651.157 1.312.157 1.984.021.651.032 1.25.032 1.796 0 .84-.032 1.785-.095 2.835a11.11 11.11 0 01-.504 2.929 5.405 5.405 0 01-1.354 2.3c-.63.63-1.512.945-2.646.945s-2.016-.315-2.646-.945a5.686 5.686 0 01-1.386-2.3c-.273-.924-.441-1.9-.504-2.929a71.598 71.598 0 01-.063-2.835zm-2.835.031c0 .819.021 1.67.063 2.552.042.882.147 1.743.315 2.583.168.84.409 1.638.724 2.394a6.459 6.459 0 001.292 1.953c.546.567 1.228 1.018 2.047 1.354.84.315 1.838.473 2.993.473 1.176 0 2.173-.158 2.992-.473.819-.336 1.502-.787 2.048-1.354a6.456 6.456 0 001.291-1.953c.315-.756.557-1.554.725-2.394.168-.84.273-1.701.315-2.583.042-.882.063-1.733.063-2.552s-.021-1.669-.063-2.551a17.364 17.364 0 00-.315-2.583c-.168-.84-.41-1.638-.725-2.394a6.354 6.354 0 00-1.291-1.985c-.546-.567-1.239-1.018-2.079-1.354-.819-.336-1.806-.504-2.961-.504-1.155 0-2.153.168-2.993.504-.819.336-1.501.787-2.047 1.354a6.357 6.357 0 00-1.292 1.985 12.665 12.665 0 00-.724 2.394c-.168.84-.273 1.701-.315 2.583a53.672 53.672 0 00-.063 2.551zm18.273-5.323v22.491h2.678v-8.379h.063c.294.483.651.892 1.071 1.228a6.38 6.38 0 001.386.756 7.5 7.5 0 001.449.41c.504.084.955.126 1.354.126 1.239 0 2.321-.221 3.245-.662.945-.441 1.722-1.039 2.331-1.795a7.533 7.533 0 001.386-2.709c.315-1.029.472-2.121.472-3.276 0-1.155-.157-2.247-.472-3.276a7.942 7.942 0 00-1.418-2.709 6.44 6.44 0 00-2.331-1.89c-.924-.462-2.016-.693-3.276-.693-1.134 0-2.173.21-3.118.63-.945.399-1.638 1.05-2.079 1.953h-.063v-2.205H503.1zm12.6 8.001c0 .798-.084 1.575-.252 2.331a6.167 6.167 0 01-.819 2.016 4.263 4.263 0 01-1.512 1.417c-.609.357-1.375.536-2.299.536-.924 0-1.712-.168-2.363-.504a4.898 4.898 0 01-1.606-1.386 5.921 5.921 0 01-.882-1.953 9.575 9.575 0 01-.284-2.331c0-.756.084-1.502.252-2.237a5.921 5.921 0 01.882-1.953 4.546 4.546 0 011.544-1.417c.63-.357 1.396-.536 2.299-.536.861 0 1.607.168 2.237.504a4.301 4.301 0 011.575 1.355c.42.567.724 1.218.913 1.953.21.714.315 1.449.315 2.205zm6.118-14.207v22.491h2.677v-6.174l2.52-2.331 5.576 8.505h3.402l-6.93-10.363 6.457-5.922h-3.591l-7.434 7.119v-13.325h-2.677z" fill="#0078C8"/>
    <path d="M958.788 717.929c.42-.567.756-1.27 1.008-2.11.252-.84.378-1.859.378-3.056 0-.987-.115-1.942-.346-2.866a7.178 7.178 0 00-1.04-2.457 5.168 5.168 0 00-1.89-1.733c-.777-.441-1.722-.661-2.835-.661s-2.058.22-2.835.661a5.168 5.168 0 00-1.89 1.733 7.658 7.658 0 00-1.071 2.457 12.89 12.89 0 00-.315 2.866c0 .945.105 1.869.315 2.772.231.882.588 1.68 1.071 2.394a5.555 5.555 0 001.89 1.733c.777.42 1.722.63 2.835.63.525 0 .924-.021 1.197-.063.273-.042.536-.126.788-.252l-2.111-1.922 2.3-2.457 2.551 2.331zm.725 5.198c-1.491.861-3.308 1.291-5.45 1.291-1.722 0-3.276-.294-4.662-.882-1.365-.609-2.52-1.438-3.465-2.488-.945-1.05-1.669-2.279-2.173-3.686-.504-1.428-.756-2.961-.756-4.599 0-1.68.252-3.234.756-4.662.504-1.449 1.228-2.709 2.173-3.78.945-1.071 2.1-1.911 3.465-2.52 1.386-.609 2.94-.913 4.662-.913 1.743 0 3.297.304 4.662.913 1.365.609 2.52 1.449 3.465 2.52.945 1.071 1.67 2.331 2.174 3.78.504 1.428.756 2.982.756 4.662 0 1.638-.252 3.161-.756 4.568a11.333 11.333 0 01-2.174 3.717l2.804 2.551-2.3 2.394-3.181-2.866zm23.775.787v-16.285h-4.473v8.536c0 1.659-.273 2.856-.819 3.591-.546.714-1.428 1.071-2.646 1.071-1.071 0-1.817-.325-2.237-.976-.42-.672-.63-1.68-.63-3.024v-9.198h-4.473v10.017c0 1.008.084 1.932.252 2.772.189.819.504 1.522.945 2.11.441.567 1.04 1.008 1.796 1.323.777.315 1.764.473 2.961.473.945 0 1.869-.21 2.772-.63.903-.42 1.638-1.103 2.205-2.048h.094v2.268h4.253zm3.188-11.277c.063-1.05.326-1.921.788-2.614a5.364 5.364 0 011.764-1.67 7.419 7.419 0 012.394-.882 13.19 13.19 0 012.709-.283c.819 0 1.648.063 2.488.189.84.105 1.607.325 2.3.661a4.467 4.467 0 011.701 1.418c.44.588.66 1.375.66 2.362v8.474c0 .735.04 1.438.13 2.11.08.672.23 1.176.44 1.512h-4.538a10.252 10.252 0 01-.22-.756 10.866 10.866 0 01-.095-.819 5.83 5.83 0 01-2.52 1.544c-.966.294-1.953.441-2.961.441a7.996 7.996 0 01-2.173-.284 4.978 4.978 0 01-1.764-.882 4.257 4.257 0 01-1.197-1.512c-.273-.609-.41-1.333-.41-2.173 0-.924.158-1.68.473-2.268.336-.609.756-1.092 1.26-1.449a5.596 5.596 0 011.764-.788 17.314 17.314 0 012.016-.441 34.173 34.173 0 011.984-.252 11.946 11.946 0 001.733-.283c.504-.126.903-.305 1.197-.536.294-.252.43-.609.409-1.071 0-.483-.084-.861-.252-1.134a1.479 1.479 0 00-.63-.661 2.052 2.052 0 00-.913-.315 5.996 5.996 0 00-1.103-.095c-.882 0-1.575.189-2.079.567-.504.378-.798 1.008-.882 1.89h-4.473zm10.332 3.308c-.189.168-.43.304-.724.409a8.359 8.359 0 01-.914.221c-.315.063-.651.115-1.008.157-.357.042-.714.095-1.071.158a8.839 8.839 0 00-1.008.252 2.97 2.97 0 00-.85.441c-.231.168-.42.388-.567.661-.147.273-.221.62-.221 1.04 0 .399.074.735.221 1.008.147.273.346.493.598.661.252.147.546.252.882.315.336.063.683.095 1.04.095.882 0 1.564-.147 2.047-.441.483-.294.84-.641 1.071-1.04.231-.42.368-.84.41-1.26.063-.42.094-.756.094-1.008v-1.669zm7.932-8.316v16.285h4.47v-8.536c0-1.659.27-2.846.82-3.56.54-.735 1.43-1.102 2.64-1.102 1.07 0 1.82.336 2.24 1.008.42.651.63 1.648.63 2.992v9.198h4.47v-10.017c0-1.008-.09-1.921-.28-2.74-.17-.84-.47-1.544-.91-2.111-.45-.588-1.05-1.039-1.83-1.354-.76-.336-1.73-.504-2.93-.504-.95 0-1.87.22-2.77.661-.91.42-1.64 1.103-2.21 2.048h-.09v-2.268h-4.25zm24.32 0v-4.883h-4.47v4.883h-2.71v2.992h2.71v9.608c0 .819.13 1.48.41 1.984.27.504.64.893 1.1 1.166.48.273 1.03.451 1.64.535.63.105 1.29.158 1.98.158.44 0 .89-.011 1.36-.032.46-.021.88-.063 1.26-.126v-3.465c-.21.042-.43.074-.67.095-.23.021-.47.031-.72.031-.76 0-1.26-.126-1.51-.378s-.38-.756-.38-1.512v-8.064h3.28v-2.992h-3.28zm9.99-2.52v-3.686h-4.48v3.686h4.48zm-4.48 2.52v16.285h4.48v-16.285h-4.48zm13.65 0v-4.883h-4.47v4.883h-2.71v2.992h2.71v9.608c0 .819.13 1.48.41 1.984.27.504.64.893 1.1 1.166.48.273 1.03.451 1.64.535.63.105 1.29.158 1.98.158.44 0 .89-.011 1.36-.032.46-.021.88-.063 1.26-.126v-3.465c-.21.042-.43.074-.66.095-.24.021-.48.031-.73.031-.76 0-1.26-.126-1.51-.378s-.38-.756-.38-1.512v-8.064h3.28v-2.992h-3.28zm13.42 18.301l6.8-18.301h-4.63l-3.56 11.151h-.06l-3.68-11.151h-4.76l5.7 15.277c.13.315.19.651.19 1.008 0 .483-.15.924-.44 1.323-.27.399-.71.63-1.29.693-.44.021-.89.011-1.33-.031l-1.29-.126v3.685c.46.042.92.074 1.36.095.46.042.92.063 1.38.063 1.54 0 2.73-.284 3.59-.851.86-.567 1.54-1.512 2.02-2.835z" fill="#284664"/>
    <path d="M990.064 839.377h2.678a7.863 7.863 0 01.189-1.985c.168-.672.43-1.27.787-1.795a4.093 4.093 0 011.355-1.26c.567-.336 1.239-.504 2.016-.504.588 0 1.144.094 1.669.283.525.189.977.462 1.352.819.4.357.72.788.95 1.292.23.483.34 1.029.34 1.638 0 .777-.12 1.459-.37 2.047a4.98 4.98 0 01-1.075 1.638c-.462.504-1.05 1.008-1.764 1.512a78.442 78.442 0 01-2.488 1.607c-.777.462-1.523.955-2.237 1.48a10.545 10.545 0 00-1.921 1.827c-.567.693-1.04 1.512-1.418 2.457-.357.924-.588 2.048-.693 3.371h14.586v-2.363h-11.467a4.217 4.217 0 01.787-1.827c.42-.546.914-1.05 1.481-1.512a16.124 16.124 0 011.921-1.291l2.079-1.26a33.916 33.916 0 002.019-1.386c.65-.483 1.23-1.019 1.73-1.607.5-.609.9-1.291 1.2-2.047.31-.756.47-1.628.47-2.615 0-1.05-.19-1.974-.57-2.772a5.34 5.34 0 00-1.48-1.984 6.216 6.216 0 00-2.235-1.229 8.144 8.144 0 00-2.709-.441c-1.176 0-2.226.2-3.15.599a6.49 6.49 0 00-2.331 1.669c-.609.693-1.06 1.523-1.354 2.489-.294.966-.41 2.016-.347 3.15zm20.256 3.433v-1.795c.02-.672.08-1.334.16-1.985.1-.672.24-1.323.41-1.953.19-.63.45-1.176.79-1.638a4.01 4.01 0 011.32-1.165c.52-.294 1.17-.441 1.92-.441.76 0 1.4.147 1.92.441.53.294.96.682 1.29 1.165.36.462.62 1.008.79 1.638.19.63.33 1.281.41 1.953.11.651.16 1.313.16 1.985.02.651.03 1.249.03 1.795 0 .84-.03 1.785-.09 2.835-.05 1.029-.21 2.006-.51 2.93a5.364 5.364 0 01-1.35 2.299c-.63.63-1.51.945-2.65.945-1.13 0-2.01-.315-2.64-.945a5.646 5.646 0 01-1.39-2.299c-.27-.924-.44-1.901-.5-2.93-.05-1.05-.07-1.995-.07-2.835zm-2.83.032c0 .819.02 1.669.06 2.551.04.882.15 1.743.32 2.583.16.84.4 1.638.72 2.394.31.735.75 1.386 1.29 1.953.55.567 1.23 1.019 2.05 1.355.84.315 1.84.472 2.99.472 1.18 0 2.17-.157 2.99-.472.82-.336 1.51-.788 2.05-1.355a6.29 6.29 0 001.29-1.953c.32-.756.56-1.554.73-2.394.17-.84.27-1.701.31-2.583.04-.882.07-1.732.07-2.551 0-.819-.03-1.67-.07-2.552a16.85 16.85 0 00-.31-2.583 12.46 12.46 0 00-.73-2.394 6.193 6.193 0 00-1.29-1.984c-.54-.567-1.24-1.019-2.08-1.355-.82-.336-1.8-.504-2.96-.504-1.15 0-2.15.168-2.99.504-.82.336-1.5.788-2.05 1.355a6.365 6.365 0 00-1.29 1.984c-.32.756-.56 1.554-.72 2.394-.17.84-.28 1.701-.32 2.583-.04.882-.06 1.733-.06 2.552zm-4.01 56.914v-2.362h-11.022l-2.079 11.592 2.299.126a6.444 6.444 0 011.796-1.512c.693-.399 1.48-.599 2.362-.599.756 0 1.439.126 2.048.378.63.252 1.166.609 1.606 1.071.44.441.78.977 1.01 1.607.25.609.38 1.281.38 2.016 0 .882-.13 1.659-.38 2.331-.25.651-.6 1.197-1.04 1.638-.42.441-.925.777-1.513 1.008a5.13 5.13 0 01-1.796.315 5.843 5.843 0 01-1.858-.284 4.971 4.971 0 01-1.449-.85 4.877 4.877 0 01-.977-1.292 4.644 4.644 0 01-.409-1.606h-2.678c.021 1.008.221 1.911.599 2.709s.892 1.47 1.543 2.016a7.45 7.45 0 002.237 1.228c.861.273 1.774.41 2.74.41 1.302 0 2.436-.2 3.401-.599.99-.42 1.81-.976 2.46-1.669a6.811 6.811 0 001.45-2.363c.33-.903.5-1.827.5-2.772 0-1.281-.19-2.394-.57-3.339-.37-.966-.89-1.764-1.54-2.394a6.13 6.13 0 00-2.3-1.449 8.26 8.26 0 00-2.802-.472c-.756 0-1.523.136-2.3.409-.756.252-1.375.651-1.858 1.197l-.063-.063 1.197-6.426h9.006zm6.84 8.6v-1.796c.02-.672.08-1.333.16-1.984.1-.672.24-1.323.41-1.953.19-.63.45-1.176.79-1.638.35-.483.79-.872 1.32-1.166.52-.294 1.16-.441 1.92-.441s1.4.147 1.92.441c.53.294.96.683 1.29 1.166.36.462.62 1.008.79 1.638.19.63.33 1.281.41 1.953.11.651.16 1.312.16 1.984.02.651.03 1.25.03 1.796 0 .84-.03 1.785-.09 2.835-.05 1.029-.21 2.005-.51 2.929-.27.903-.72 1.67-1.35 2.3-.63.63-1.52.945-2.65.945s-2.02-.315-2.65-.945a5.63 5.63 0 01-1.38-2.3c-.27-.924-.44-1.9-.51-2.929-.04-1.05-.06-1.995-.06-2.835zm-2.83.031c0 .819.02 1.67.06 2.552.04.882.15 1.743.31 2.583.17.84.41 1.638.73 2.394a6.29 6.29 0 001.29 1.953c.55.567 1.23 1.018 2.05 1.354.84.315 1.84.473 2.99.473 1.18 0 2.17-.158 2.99-.473.82-.336 1.5-.787 2.05-1.354a6.29 6.29 0 001.29-1.953c.32-.756.56-1.554.73-2.394.16-.84.27-1.701.31-2.583.04-.882.06-1.733.06-2.552s-.02-1.669-.06-2.551c-.04-.882-.15-1.743-.31-2.583a12.46 12.46 0 00-.73-2.394 6.197 6.197 0 00-1.29-1.985c-.55-.567-1.24-1.018-2.08-1.354-.82-.336-1.8-.504-2.96-.504-1.15 0-2.15.168-2.99.504-.82.336-1.5.787-2.05 1.354a6.197 6.197 0 00-1.29 1.985 12.46 12.46 0 00-.73 2.394c-.16.84-.27 1.701-.31 2.583a56.35 56.35 0 00-.06 2.551z" fill="#0078C8"/>
    <path d="M1154.8 708.983h4.79c-.14-1.302-.5-2.457-1.07-3.465a8.201 8.201 0 00-2.17-2.52 9.126 9.126 0 00-2.96-1.575c-1.1-.357-2.26-.535-3.5-.535-1.72 0-3.28.304-4.66.913a9.993 9.993 0 00-3.47 2.52c-.94 1.071-1.67 2.331-2.17 3.78-.5 1.428-.76 2.982-.76 4.662 0 1.638.26 3.171.76 4.599.5 1.407 1.23 2.636 2.17 3.686.95 1.05 2.1 1.879 3.47 2.488 1.38.588 2.94.882 4.66.882 1.39 0 2.66-.21 3.81-.63a8.902 8.902 0 003.03-1.827 9.044 9.044 0 002.07-2.898c.53-1.134.86-2.404.98-3.811h-4.79c-.19 1.512-.71 2.73-1.57 3.654-.84.924-2.02 1.386-3.53 1.386-1.11 0-2.06-.21-2.83-.63a5.5 5.5 0 01-1.89-1.733c-.49-.714-.84-1.512-1.08-2.394-.21-.903-.31-1.827-.31-2.772 0-.987.1-1.942.31-2.866.24-.924.59-1.743 1.08-2.457a5.121 5.121 0 011.89-1.733c.77-.441 1.72-.661 2.83-.661.61 0 1.19.105 1.73.315a4.73 4.73 0 011.51.819c.45.357.81.777 1.11 1.26.29.462.48.976.56 1.543zm11.84 6.804c0-.651.06-1.291.19-1.921.12-.63.33-1.187.63-1.67a3.59 3.59 0 011.22-1.165c.51-.315 1.14-.473 1.89-.473.76 0 1.39.158 1.89.473.53.294.94.682 1.23 1.165.32.483.54 1.04.66 1.67.13.63.19 1.27.19 1.921s-.06 1.292-.19 1.922a4.822 4.822 0 01-.66 1.669c-.29.483-.7.872-1.23 1.166-.5.294-1.13.441-1.89.441-.75 0-1.38-.147-1.89-.441-.5-.294-.91-.683-1.22-1.166a5.2 5.2 0 01-.63-1.669 9.485 9.485 0 01-.19-1.922zm-4.48 0c0 1.302.2 2.478.6 3.528.4 1.05.97 1.953 1.7 2.709a7.603 7.603 0 002.65 1.701c1.03.399 2.18.599 3.46.599 1.29 0 2.44-.2 3.47-.599 1.05-.399 1.94-.966 2.68-1.701a7.903 7.903 0 001.7-2.709c.4-1.05.6-2.226.6-3.528s-.2-2.478-.6-3.528c-.4-1.071-.97-1.974-1.7-2.709a7.337 7.337 0 00-2.68-1.732c-1.03-.42-2.18-.63-3.47-.63-1.28 0-2.43.21-3.46.63a7.387 7.387 0 00-2.65 1.732c-.73.735-1.3 1.638-1.7 2.709-.4 1.05-.6 2.226-.6 3.528zm23.21 2.835h-4.25c.04 1.092.28 2.006.72 2.741a5.714 5.714 0 001.74 1.732c.71.441 1.52.756 2.42.945.91.189 1.83.284 2.77.284.93 0 1.83-.095 2.71-.284.91-.168 1.7-.472 2.4-.913a5.102 5.102 0 001.67-1.733c.44-.735.66-1.638.66-2.709 0-.756-.15-1.386-.44-1.89a3.83 3.83 0 00-1.17-1.291 5.915 5.915 0 00-1.67-.851c-.61-.21-1.24-.388-1.89-.535a74.63 74.63 0 00-1.86-.41c-.6-.126-1.15-.262-1.63-.409a3.646 3.646 0 01-1.14-.63 1.24 1.24 0 01-.44-.977c0-.336.09-.598.25-.787.17-.21.37-.368.6-.473.25-.105.53-.168.82-.189.29-.042.57-.063.82-.063.8 0 1.49.158 2.08.473.59.294.91.871.98 1.732h4.25c-.09-1.008-.35-1.837-.79-2.488a4.915 4.915 0 00-1.61-1.607 6.743 6.743 0 00-2.23-.85c-.82-.168-1.67-.252-2.55-.252-.89 0-1.75.084-2.59.252-.84.147-1.59.42-2.27.819-.67.378-1.21.903-1.63 1.575-.4.672-.6 1.533-.6 2.583 0 .714.15 1.323.44 1.827.29.483.68.892 1.16 1.228a7.55 7.55 0 001.64.788c.63.189 1.27.357 1.92.504 1.6.336 2.84.672 3.72 1.008.9.336 1.36.84 1.36 1.512 0 .399-.1.735-.29 1.008-.19.252-.43.462-.72.63-.28.147-.59.262-.95.346a5.221 5.221 0 01-2.27-.063 3.69 3.69 0 01-1.07-.472 3.098 3.098 0 01-.78-.851c-.19-.357-.29-.777-.29-1.26zm19.11-10.993v-4.883h-4.47v4.883h-2.71v2.992h2.71v9.608c0 .819.13 1.48.41 1.984.27.504.64.893 1.1 1.166.48.273 1.03.451 1.64.535.63.105 1.29.158 1.98.158.44 0 .89-.011 1.36-.032.46-.021.88-.063 1.26-.126v-3.465a6.47 6.47 0 01-.67.095c-.23.021-.47.031-.72.031-.76 0-1.26-.126-1.51-.378s-.38-.756-.38-1.512v-8.064h3.28v-2.992h-3.28z" fill="#284664"/>
    <path d="M1176.54 834.211v-2.363h-11.03l-2.07 11.592 2.3.126a6.379 6.379 0 011.79-1.512c.69-.399 1.48-.598 2.36-.598.76 0 1.44.126 2.05.378.63.252 1.17.609 1.61 1.071.44.441.77.976 1.01 1.606.25.609.37 1.281.37 2.016 0 .882-.12 1.659-.37 2.331-.26.651-.6 1.197-1.04 1.638-.42.441-.93.777-1.52 1.008a5.07 5.07 0 01-1.79.315c-.67 0-1.29-.094-1.86-.283a4.927 4.927 0 01-1.45-.851c-.4-.378-.72-.808-.98-1.291a4.861 4.861 0 01-.41-1.607h-2.67c.02 1.008.22 1.911.6 2.709.37.798.89 1.47 1.54 2.016.65.525 1.4.935 2.24 1.229.86.273 1.77.409 2.74.409 1.3 0 2.43-.199 3.4-.598.99-.42 1.8-.977 2.46-1.67a6.636 6.636 0 001.44-2.362c.34-.903.51-1.827.51-2.772 0-1.281-.19-2.394-.57-3.339-.38-.966-.89-1.764-1.54-2.394a6.13 6.13 0 00-2.3-1.449 8.29 8.29 0 00-2.81-.473c-.75 0-1.52.137-2.29.41-.76.252-1.38.651-1.86 1.197l-.07-.063 1.2-6.426h9.01zm-17.24 77.547h-7.5l7.43-10.931h.07v10.931zm2.52 0v-14.742h-2.15l-10.17 14.521v2.583h9.8v5.229h2.52v-5.229h3.02v-2.362h-3.02zm6.9 4.095v3.496h3.49v-3.496h-3.49zm20.94-16.097v-2.362h-11.03l-2.08 11.592 2.3.126a6.56 6.56 0 011.8-1.512c.69-.399 1.48-.599 2.36-.599.76 0 1.44.126 2.05.378.63.252 1.16.609 1.6 1.071.45.441.78.977 1.01 1.607.25.609.38 1.281.38 2.016 0 .882-.13 1.659-.38 2.331-.25.651-.6 1.197-1.04 1.638-.42.441-.92.777-1.51 1.008a5.11 5.11 0 01-1.79.315c-.68 0-1.3-.095-1.86-.284a4.925 4.925 0 01-1.45-.85c-.4-.378-.73-.809-.98-1.292a4.624 4.624 0 01-.41-1.606h-2.68c.03 1.008.23 1.911.6 2.709.38.798.9 1.47 1.55 2.016.65.525 1.39.934 2.23 1.228.86.273 1.78.41 2.74.41 1.31 0 2.44-.2 3.41-.599.98-.42 1.8-.976 2.45-1.669a6.665 6.665 0 001.45-2.363c.34-.903.51-1.827.51-2.772 0-1.281-.19-2.394-.57-3.339-.38-.966-.89-1.764-1.54-2.394a6.21 6.21 0 00-2.3-1.449 8.33 8.33 0 00-2.81-.472c-.75 0-1.52.136-2.3.409-.75.252-1.37.651-1.86 1.197l-.06-.063 1.2-6.426h9.01z" fill="#0078C8"/>
    <path stroke="#BFC8D1" stroke-width="3" d="M325.011 773.221l945.979.728"/>
    <path d="M1103.92 538.396V484.22l-54.18 54.176 54.18 54.177v-54.177z" fill="#FBB200"/>
    <path d="M1103.92 538.388v54.176l54.18-54.176-54.18-54.177v54.177z" fill="#E7690D"/>
    <path d="M1113.23 583.245l-9.33-9.328-9.33 9.328 9.33 9.328 9.33-9.328z" fill="#A3684D"/>
    <path d="M1103.95 484.257l-54.2 54.13v-96.263c0-4.455 5.38-6.686 8.53-3.536l45.67 45.669z" fill="#FECD08"/>
    <path d="M1103.92 484.257l45.59-45.655c3.15-3.153 8.54-.923 8.54 3.533v96.252l-54.13-54.13z" fill="#FBB200"/>
  </g>
  <path stroke="#BFC8D1" stroke-width="6" stroke-dasharray="30 30" d="M1008.08 416.665h192.838v192.838H1008.08z"/>
  <path d="M1170.98 580.262c-.79-.28-1.56.483-1.28 1.276l19.15 54.243a1 1 0 001.65.374l11.13-11.131a1.006 1.006 0 011.42 0l19.39 19.392c.39.391 1.02.391 1.42 0l5-5.002 5-5.001c.39-.391.39-1.024 0-1.415l-19.39-19.392a1 1 0 010-1.414l11.1-11.105a1 1 0 00-.37-1.65l-54.22-19.175z" fill="#fff" stroke="#BFC8D1" stroke-width="6"/>
  <defs>
    <filter id="filter0_d" x="153" y="57.457" width="1290" height="941.175" filterUnits="userSpaceOnUse" color-interpolation-filters="sRGB">
      <feFlood flood-opacity="0" result="BackgroundImageFix"/>
      <feColorMatrix in="SourceAlpha" values="0 0 0 0 0 0 0 0 0 0 0 0 0 0 0 0 0 0 127 0"/>
      <feOffset/>
      <feGaussianBlur stdDeviation="7.5"/>
      <feColorMatrix values="0 0 0 0 0 0 0 0 0 0 0 0 0 0 0 0 0 0 0.15 0"/>
      <feBlend in2="BackgroundImageFix" result="effect1_dropShadow"/>
      <feBlend in="SourceGraphic" in2="effect1_dropShadow" result="shape"/>
    </filter>
    <filter id="filter1_d" x="195.15" y="210.544" width="1204.84" height="793.538" filterUnits="userSpaceOnUse" color-interpolation-filters="sRGB">
      <feFlood flood-opacity="0" result="BackgroundImageFix"/>
      <feColorMatrix in="SourceAlpha" values="0 0 0 0 0 0 0 0 0 0 0 0 0 0 0 0 0 0 127 0"/>
      <feOffset/>
      <feGaussianBlur stdDeviation="7.5"/>
      <feColorMatrix values="0 0 0 0 0 0 0 0 0 0 0 0 0 0 0 0 0 0 0.15 0"/>
      <feBlend in2="BackgroundImageFix" result="effect1_dropShadow"/>
      <feBlend in="SourceGraphic" in2="effect1_dropShadow" result="shape"/>
    </filter>
  </defs>
</svg>
